<svg width="384" height="88" viewBox="0 0 384 88" fill="none" xmlns="http://www.w3.org/2000/svg">
<rect x="1.5" y="1.5" width="380.333" height="85" rx="42.5" fill="#170617" fill-opacity="0.8"/>
<rect x="1.5" y="1.5" width="380.333" height="85" rx="42.5" stroke="#331433" stroke-width="3"/>
<rect x="30" y="26" width="158" height="36" rx="18" fill="#331433"/>
<path d="M62.82 45.108H61.574L61.938 43.036H63.31V41.244H62.246L62.596 39.2H60.748L60.398 41.244H58.368L58.718 39.2H56.87L56.52 41.244H54.98V43.036H56.212L55.848 45.108H54.49V46.9H55.54L55.19 49H57.038L57.402 46.9H59.418L59.068 49H60.916L61.266 46.9H62.82V45.108ZM58.018 42.98H60.132L59.768 45.164H57.654L58.018 42.98ZM73.768 49.168C75.672 49.168 76.778 48.496 77.786 47.418L76.414 46.032C75.644 46.746 74.958 47.18 73.838 47.18C72.158 47.18 70.996 45.78 70.996 44.1V44.072C70.996 42.392 72.186 41.02 73.838 41.02C74.832 41.02 75.574 41.44 76.344 42.126L77.716 40.544C76.82 39.648 75.686 39.032 73.852 39.032C70.842 39.032 68.742 41.314 68.742 44.1V44.128C68.742 46.942 70.884 49.168 73.768 49.168ZM82.8332 49.168C85.1712 49.168 86.9072 47.418 86.9072 45.262V45.234C86.9072 43.064 85.1712 41.356 82.8612 41.356C80.5232 41.356 78.7872 43.106 78.7872 45.262V45.29C78.7872 47.46 80.5232 49.168 82.8332 49.168ZM82.8612 47.334C81.6852 47.334 80.8872 46.368 80.8872 45.262V45.234C80.8872 44.114 81.6152 43.19 82.8332 43.19C84.0092 43.19 84.8072 44.156 84.8072 45.262V45.29C84.8072 46.41 84.0792 47.334 82.8612 47.334ZM88.4481 49H90.5761V44.814C90.5761 43.806 91.0661 43.288 91.8641 43.288C92.6621 43.288 93.1101 43.806 93.1101 44.814V49H95.2381V44.814C95.2381 43.806 95.7281 43.288 96.5261 43.288C97.3241 43.288 97.7721 43.806 97.7721 44.814V49H99.9001V44.114C99.9001 42.308 98.9481 41.356 97.3661 41.356C96.3441 41.356 95.5601 41.762 94.9021 42.546C94.5101 41.776 93.7821 41.356 92.7881 41.356C91.7101 41.356 91.0661 41.93 90.5761 42.56V41.496H88.4481V49ZM101.793 40.67H104.033V38.78H101.793V40.67ZM101.849 49H103.977V41.496H101.849V49ZM105.975 49H108.103V44.814C108.103 43.806 108.607 43.288 109.433 43.288C110.259 43.288 110.721 43.806 110.721 44.814V49H112.849V44.142C112.849 42.406 111.925 41.356 110.301 41.356C109.237 41.356 108.593 41.93 108.103 42.56V41.496H105.975V49ZM118.058 51.268C119.514 51.268 120.578 50.974 121.292 50.26C121.922 49.63 122.244 48.636 122.244 47.306V41.496H120.116V42.476C119.542 41.846 118.856 41.356 117.694 41.356C115.972 41.356 114.362 42.616 114.362 44.856V44.884C114.362 47.124 115.944 48.384 117.694 48.384C118.828 48.384 119.514 47.936 120.144 47.166V47.53C120.144 48.874 119.458 49.574 118.002 49.574C116.994 49.574 116.252 49.322 115.468 48.888L114.74 50.484C115.692 50.988 116.826 51.268 118.058 51.268ZM118.31 46.62C117.26 46.62 116.49 45.934 116.49 44.884V44.856C116.49 43.834 117.274 43.12 118.31 43.12C119.36 43.12 120.144 43.834 120.144 44.856V44.884C120.144 45.906 119.36 46.62 118.31 46.62ZM132.053 49.14C134.167 49.14 135.651 48.048 135.651 46.102V46.074C135.651 44.366 134.531 43.666 132.543 43.134C130.849 42.686 130.429 42.504 130.429 41.846V41.818C130.429 41.328 130.849 40.964 131.689 40.964C132.529 40.964 133.355 41.328 134.237 41.93L135.357 40.306C134.349 39.508 133.159 39.06 131.717 39.06C129.701 39.06 128.287 40.236 128.287 42.014V42.042C128.287 43.974 129.547 44.548 131.535 45.038C133.173 45.444 133.509 45.738 133.509 46.284V46.312C133.509 46.886 132.991 47.236 132.095 47.236C130.975 47.236 130.065 46.774 129.169 46.046L127.895 47.572C129.071 48.636 130.555 49.14 132.053 49.14ZM140.98 49.168C143.318 49.168 145.054 47.418 145.054 45.262V45.234C145.054 43.064 143.318 41.356 141.008 41.356C138.67 41.356 136.934 43.106 136.934 45.262V45.29C136.934 47.46 138.67 49.168 140.98 49.168ZM141.008 47.334C139.832 47.334 139.034 46.368 139.034 45.262V45.234C139.034 44.114 139.762 43.19 140.98 43.19C142.156 43.19 142.954 44.156 142.954 45.262V45.29C142.954 46.41 142.226 47.334 141.008 47.334ZM150.277 49.168C152.615 49.168 154.351 47.418 154.351 45.262V45.234C154.351 43.064 152.615 41.356 150.305 41.356C147.967 41.356 146.231 43.106 146.231 45.262V45.29C146.231 47.46 147.967 49.168 150.277 49.168ZM150.305 47.334C149.129 47.334 148.331 46.368 148.331 45.262V45.234C148.331 44.114 149.059 43.19 150.277 43.19C151.453 43.19 152.251 44.156 152.251 45.262V45.29C152.251 46.41 151.523 47.334 150.305 47.334ZM155.891 49H158.019V44.814C158.019 43.806 158.523 43.288 159.349 43.288C160.175 43.288 160.637 43.806 160.637 44.814V49H162.765V44.142C162.765 42.406 161.841 41.356 160.217 41.356C159.153 41.356 158.509 41.93 158.019 42.56V41.496H155.891V49Z" fill="#C6AAC6"/>
<path d="M219.267 62.1837H220.642V54.1689H223.551V52.9908H220.624V52.2411C220.624 50.938 221.16 50.2775 222.231 50.2775C222.712 50.2775 223.07 50.3668 223.569 50.5096V49.3136C223.123 49.1529 222.695 49.0815 222.052 49.0815C221.213 49.0815 220.553 49.3136 220.071 49.7956C219.535 50.3311 219.267 51.1165 219.267 52.1697V52.9729H218V54.1689H219.267V62.1837Z" fill="#C6AAC6"/>
<path d="M228.705 62.3979C231.49 62.3979 233.542 60.2023 233.542 57.5783V57.5426C233.542 54.9365 231.525 52.7587 228.741 52.7587C225.938 52.7587 223.921 54.9543 223.921 57.5783V57.614C223.921 60.2202 225.938 62.3979 228.705 62.3979ZM228.741 61.1662C226.795 61.1662 225.331 59.5597 225.331 57.5783V57.5426C225.331 55.5969 226.706 53.9725 228.705 53.9725C230.651 53.9725 232.132 55.5969 232.132 57.5783V57.614C232.132 59.5419 230.74 61.1662 228.741 61.1662Z" fill="#C6AAC6"/>
<path d="M235.395 62.1837H236.769V58.5065C236.769 55.7219 238.411 54.276 240.429 54.276H240.536V52.7944C238.786 52.7409 237.448 53.8297 236.769 55.3649V52.9551H235.395V62.1837Z" fill="#C6AAC6"/>
<path d="M246.938 62.1837H248.348V57.7747H251.382C254.042 57.7747 256.291 56.3823 256.291 53.6869V53.6512C256.291 51.1879 254.435 49.6885 251.614 49.6885H246.938V62.1837ZM248.348 56.4894V50.9915H251.507C253.524 50.9915 254.863 51.9197 254.863 53.7048V53.7405C254.863 55.3827 253.507 56.4894 251.436 56.4894H248.348Z" fill="#C6AAC6"/>
<path d="M262.111 60.6486L258.755 52.9551H257.238L261.433 62.148C260.879 63.4511 260.379 63.8795 259.54 63.8795C258.951 63.8795 258.541 63.7724 258.095 63.5403L257.63 64.6292C258.255 64.9327 258.826 65.0933 259.594 65.0933C260.968 65.0933 261.879 64.3971 262.664 62.4872L266.538 52.9551H265.074L262.111 60.6486Z" fill="#C6AAC6"/>
<path d="M271.163 62.3444C271.823 62.3444 272.341 62.2194 272.823 61.9517V60.7735C272.341 61.0056 271.966 61.0948 271.484 61.0948C270.556 61.0948 269.931 60.7021 269.931 59.5597V54.1689H272.859V52.9551H269.931V50.1704H268.557V52.9551H267.272V54.1689H268.557V59.7382C268.557 61.6125 269.663 62.3444 271.163 62.3444Z" fill="#C6AAC6"/>
<path d="M274.654 62.1837H276.029V56.9C276.029 55.1685 277.207 54.0082 278.795 54.0082C280.438 54.0082 281.348 55.0793 281.348 56.7929V62.1837H282.722V56.4537C282.722 54.2581 281.402 52.7587 279.188 52.7587C277.599 52.7587 276.653 53.562 276.029 54.5616V49.1529H274.654V62.1837Z" fill="#C6AAC6"/>
<path d="M289.229 62.3979C292.014 62.3979 294.066 60.2023 294.066 57.5783V57.5426C294.066 54.9365 292.049 52.7587 289.265 52.7587C286.462 52.7587 284.445 54.9543 284.445 57.5783V57.614C284.445 60.2202 286.462 62.3979 289.229 62.3979ZM289.265 61.1662C287.319 61.1662 285.855 59.5597 285.855 57.5783V57.5426C285.855 55.5969 287.23 53.9725 289.229 53.9725C291.175 53.9725 292.656 55.5969 292.656 57.5783V57.614C292.656 59.5419 291.264 61.1662 289.265 61.1662Z" fill="#C6AAC6"/>
<path d="M295.919 62.1837H297.293V56.9C297.293 55.1685 298.471 54.0082 300.06 54.0082C301.702 54.0082 302.613 55.0793 302.613 56.7929V62.1837H303.987V56.4537C303.987 54.2581 302.666 52.7587 300.453 52.7587C298.864 52.7587 297.918 53.562 297.293 54.5616V52.9551H295.919V62.1837Z" fill="#C6AAC6"/>
<path d="M218 23.256H221.734V40.3355H218V23.1925V23.256ZM225.938 23.256H233.689C235.822 23.256 237.454 23.8275 238.615 24.9703C239.103 25.4956 239.482 26.1146 239.73 26.7908C239.978 27.4669 240.09 28.1864 240.058 28.9069V28.9386C240.058 30.3354 239.744 31.4783 239.054 32.3354C238.377 33.202 237.475 33.8614 236.45 34.2402L240.56 40.3672H236.23L232.59 34.8751H229.704V40.3672H226.001V23.1925L225.938 23.256ZM233.469 31.5418C234.379 31.5418 235.069 31.3513 235.571 30.9069C235.815 30.6841 236.007 30.4087 236.132 30.101C236.257 29.7933 236.312 29.4612 236.293 29.1291V29.0973C236.293 28.2719 236.042 27.6688 235.54 27.2561C235.006 26.8434 234.285 26.6211 233.375 26.6211H229.672V31.5418H233.469ZM251.668 40.6529C249.264 40.6805 246.945 39.7579 245.204 38.0815C244.385 37.2746 243.74 36.3056 243.308 35.235C242.876 34.1644 242.667 33.0153 242.694 31.8592V31.764C242.673 30.0114 243.177 28.2935 244.14 26.8369C245.104 25.3803 246.481 24.2535 248.091 23.6052C249.189 23.1608 250.381 22.9068 251.699 22.9068C254.096 22.8961 256.403 23.8297 258.131 25.51C258.95 26.3169 259.595 27.2859 260.027 28.3565C260.459 29.4271 260.668 30.5763 260.642 31.7323V31.764C260.663 33.5166 260.159 35.2345 259.195 36.6911C258.232 38.1477 256.854 39.2745 255.245 39.9228C254.112 40.4023 252.896 40.6504 251.668 40.6529ZM251.668 37.1609C252.352 37.1703 253.032 37.0371 253.663 36.7695C254.295 36.5019 254.865 36.1056 255.339 35.6053C256.268 34.5864 256.773 33.245 256.751 31.8592V31.764C256.781 30.352 256.263 28.9843 255.307 27.9545C254.834 27.4514 254.265 27.0512 253.633 26.7783C253.002 26.5054 252.323 26.3655 251.636 26.3672C250.955 26.368 250.281 26.5091 249.655 26.782C249.029 27.0549 248.465 27.4538 247.997 27.9545C247.049 28.9764 246.531 30.3312 246.553 31.7323V31.764C246.552 33.1708 247.066 34.5282 247.997 35.5736C248.467 36.0497 249.001 36.4307 249.628 36.7164C250.256 37.0339 250.946 37.1609 251.699 37.1609H251.668ZM263.968 23.256H267.419L275.326 33.7958V23.256H278.966V40.3355H275.828L267.607 29.4465V40.3355H263.936V23.1925L263.968 23.256Z" fill="#C6AAC6"/>
<path d="M282.826 23.2562H289.164C290.105 23.2562 290.984 23.3832 291.768 23.6372C292.553 23.8911 293.212 24.2404 293.777 24.6848C294.33 25.1881 294.77 25.8056 295.068 26.4956C295.366 27.1855 295.514 27.9321 295.502 28.6848V28.7166C295.502 29.669 295.314 30.4626 294.969 31.161C294.624 31.8594 294.122 32.4309 293.526 32.9071C292.896 33.3867 292.183 33.7421 291.423 33.9547C290.607 34.2087 289.76 34.3039 288.85 34.3039H284.771V40.3357H282.826V23.2562ZM288.944 32.5896C289.635 32.5896 290.262 32.4944 290.827 32.3039C291.362 32.1468 291.862 31.8882 292.302 31.542C292.703 31.2135 293.024 30.7969 293.241 30.3237C293.459 29.8506 293.567 29.3335 293.557 28.8118V28.7483C293.557 27.542 293.18 26.5896 292.333 25.9864C291.486 25.3832 290.388 25.034 289.039 25.034H284.74V32.5896H288.944ZM298.985 23.2562H304.853C306.171 23.2562 307.363 23.4467 308.492 23.8911C309.591 24.3356 310.532 24.9388 311.316 25.7007C312.131 26.4702 312.776 27.4055 313.209 28.445C313.642 29.4845 313.852 30.6048 313.827 31.7325V31.7959C313.843 32.9489 313.63 34.0935 313.199 35.161C312.768 36.195 312.127 37.1254 311.316 37.8912C310.499 38.6723 309.54 39.2867 308.492 39.7007C307.363 40.1452 306.171 40.3357 304.853 40.3357H298.985V23.2562ZM304.853 38.5579C305.92 38.5579 306.861 38.3991 307.739 38.0499C308.553 37.745 309.294 37.2711 309.916 36.6587C310.537 36.0463 311.025 35.3091 311.348 34.4944C311.682 33.6571 311.852 32.7623 311.85 31.8594V31.7642C311.85 30.8118 311.693 29.9547 311.348 29.1293C311.024 28.3078 310.536 27.5626 309.916 26.94C309.295 26.3173 308.554 25.8307 307.739 25.5102C306.818 25.1575 305.838 24.9851 304.853 25.0023H300.868V38.5261H304.853V38.5579ZM317.874 23.2562H330.017V25.034H319.788V31.1293H328.95V32.8753H319.757V40.3357H317.874V23.1927V23.2562Z" fill="#C6AAC6"/>
</svg>
